<svg width="258" height="61" viewBox="0 0 258 61" fill="none" xmlns="http://www.w3.org/2000/svg">
<path d="M0.597 35L243.262 43.8084L257.781 44.3354L1.83842e-06 51.447L0.597 35Z" fill="#D0D0D0"/>
<path d="M29.562 13.5C32.382 13.5 34.797 14.205 36.807 15.615C38.817 17.025 40.332 18.93 41.352 21.33C42.372 23.7 42.882 26.34 42.882 29.25C42.882 32.19 42.372 34.86 41.352 37.26C40.332 39.63 38.817 41.52 36.807 42.93C34.797 44.31 32.382 45 29.562 45H18.492C17.892 45 17.382 44.79 16.962 44.37C16.542 43.95 16.332 43.44 16.332 42.84V15.66C16.332 15.06 16.542 14.55 16.962 14.13C17.382 13.71 17.892 13.5 18.492 13.5H29.562ZM29.112 40.86C32.172 40.86 34.467 39.78 35.997 37.62C37.527 35.43 38.292 32.64 38.292 29.25C38.292 25.89 37.512 23.115 35.952 20.925C34.422 18.735 32.142 17.64 29.112 17.64H20.787V40.86H29.112ZM71.7179 28.44C72.3179 28.44 72.8129 28.65 73.2029 29.07C73.6229 29.49 73.8329 30 73.8329 30.6V40.725C73.8329 41.535 73.4729 42.165 72.7529 42.615C71.3729 43.515 69.8579 44.22 68.2079 44.73C66.5579 45.21 64.8629 45.45 63.1229 45.45C60.1229 45.45 57.3629 44.73 54.8429 43.29C52.3529 41.85 50.3879 39.9 48.9479 37.44C47.5079 34.95 46.7879 32.22 46.7879 29.25C46.7879 26.28 47.5079 23.565 48.9479 21.105C50.3879 18.615 52.3529 16.65 54.8429 15.21C57.3629 13.77 60.1229 13.05 63.1229 13.05C64.6229 13.05 66.0629 13.215 67.4429 13.545C68.8529 13.875 70.1129 14.37 71.2229 15.03C71.5829 15.24 71.8529 15.495 72.0329 15.795C72.2129 16.095 72.3029 16.425 72.3029 16.785C72.3029 17.385 72.0929 17.91 71.6729 18.36C71.2829 18.78 70.8029 18.99 70.2329 18.99C69.7829 18.99 69.3929 18.885 69.0629 18.675C67.1129 17.775 65.1329 17.325 63.1229 17.325C60.9629 17.325 58.9829 17.85 57.1829 18.9C55.4129 19.95 54.0029 21.39 52.9529 23.22C51.9329 25.05 51.4229 27.06 51.4229 29.25C51.4229 31.44 51.9329 33.45 52.9529 35.28C54.0029 37.08 55.4129 38.52 57.1829 39.6C58.9829 40.65 60.9629 41.175 63.1229 41.175C64.1429 41.175 65.2079 41.055 66.3179 40.815C67.4579 40.575 68.4329 40.26 69.2429 39.87V32.715H63.7979C63.1979 32.715 62.6879 32.52 62.2679 32.13C61.8479 31.71 61.6379 31.2 61.6379 30.6C61.6379 29.97 61.8479 29.46 62.2679 29.07C62.6879 28.65 63.1979 28.44 63.7979 28.44H71.7179ZM97.6969 40.86C98.3269 40.86 98.8369 41.07 99.2269 41.49C99.6469 41.91 99.8569 42.405 99.8569 42.975C99.8569 43.575 99.6469 44.07 99.2269 44.46C98.8369 44.82 98.3269 45 97.6969 45H82.0369C81.4369 45 80.9269 44.79 80.5069 44.37C80.0869 43.95 79.8769 43.44 79.8769 42.84V15.66C79.8769 15.06 80.0869 14.55 80.5069 14.13C80.9269 13.71 81.4369 13.5 82.0369 13.5H97.6969C98.3269 13.5 98.8369 13.695 99.2269 14.085C99.6469 14.475 99.8569 14.985 99.8569 15.615C99.8569 16.215 99.6469 16.71 99.2269 17.1C98.8369 17.46 98.3269 17.64 97.6969 17.64H84.3319V26.82H95.6719C96.3019 26.82 96.8119 27.015 97.2019 27.405C97.6219 27.795 97.8319 28.29 97.8319 28.89C97.8319 29.52 97.6219 30.015 97.2019 30.375C96.8119 30.735 96.3019 30.915 95.6719 30.915H84.3319V40.86H97.6969ZM129.526 41.4C129.826 41.61 130.066 41.88 130.246 42.21C130.426 42.51 130.516 42.825 130.516 43.155C130.516 43.785 130.306 44.25 129.886 44.55C129.496 44.85 129.016 45 128.446 45C127.876 45 127.396 44.88 127.006 44.64C126.106 44.13 125.371 43.305 124.801 42.165C124.231 41.025 123.946 39.345 123.946 37.125C123.946 35.625 123.496 34.515 122.596 33.795C121.696 33.075 120.526 32.715 119.086 32.715H109.996V42.84C109.996 43.47 109.816 43.995 109.456 44.415C109.096 44.805 108.631 45 108.061 45C107.371 45 106.771 44.79 106.261 44.37C105.781 43.95 105.541 43.44 105.541 42.84V15.66C105.541 15.06 105.751 14.55 106.171 14.13C106.591 13.71 107.101 13.5 107.701 13.5H120.346C121.966 13.5 123.451 13.905 124.801 14.715C126.151 15.495 127.231 16.59 128.041 18C128.851 19.38 129.256 20.94 129.256 22.68C129.256 24.36 128.806 25.935 127.906 27.405C127.006 28.845 125.851 29.925 124.441 30.645C125.551 31.215 126.421 32.01 127.051 33.03C127.711 34.05 128.071 35.235 128.131 36.585C128.251 38.295 128.386 39.465 128.536 40.095C128.686 40.695 129.016 41.13 129.526 41.4ZM120.256 28.98C121.006 28.92 121.711 28.62 122.371 28.08C123.061 27.54 123.616 26.82 124.036 25.92C124.456 24.99 124.666 23.955 124.666 22.815C124.666 21.375 124.216 20.16 123.316 19.17C122.446 18.15 121.381 17.64 120.121 17.64H109.996V28.98H120.256ZM157.097 40.905C157.727 40.905 158.237 41.1 158.627 41.49C159.047 41.85 159.257 42.33 159.257 42.93C159.257 43.53 159.047 44.025 158.627 44.415C158.207 44.805 157.697 45 157.097 45H136.577C135.947 45 135.407 44.79 134.957 44.37C134.537 43.92 134.327 43.425 134.327 42.885C134.327 42.405 134.492 41.955 134.822 41.535L153.182 17.595H138.107C137.477 17.595 136.952 17.4 136.532 17.01C136.142 16.62 135.947 16.125 135.947 15.525C135.947 14.925 136.142 14.445 136.532 14.085C136.952 13.695 137.477 13.5 138.107 13.5H157.367C157.967 13.5 158.507 13.71 158.987 14.13C159.467 14.52 159.707 15.015 159.707 15.615C159.707 16.035 159.542 16.485 159.212 16.965L140.852 40.905H157.097ZM166.209 44.955C165.489 44.955 164.934 44.76 164.544 44.37C164.184 43.98 164.004 43.41 164.004 42.66V41.805C164.004 41.085 164.184 40.53 164.544 40.14C164.934 39.75 165.489 39.555 166.209 39.555H166.659C167.409 39.555 167.964 39.75 168.324 40.14C168.714 40.53 168.909 41.085 168.909 41.805V42.66C168.909 44.19 168.159 44.955 166.659 44.955H166.209ZM184.87 20.88C187.24 20.88 189.205 21.255 190.765 22.005C192.355 22.755 193.15 23.715 193.15 24.885C193.15 25.395 192.985 25.86 192.655 26.28C192.325 26.67 191.905 26.865 191.395 26.865C191.005 26.865 190.69 26.805 190.45 26.685C190.24 26.565 189.94 26.37 189.55 26.1C189.37 25.92 189.085 25.71 188.695 25.47C188.335 25.29 187.825 25.14 187.165 25.02C186.505 24.9 185.905 24.84 185.365 24.84C183.805 24.84 182.425 25.2 181.225 25.92C180.025 26.64 179.095 27.645 178.435 28.935C177.775 30.195 177.445 31.605 177.445 33.165C177.445 34.755 177.76 36.18 178.39 37.44C179.05 38.7 179.965 39.69 181.135 40.41C182.305 41.13 183.64 41.49 185.14 41.49C186.7 41.49 187.96 41.25 188.92 40.77C189.13 40.65 189.415 40.455 189.775 40.185C190.075 39.945 190.33 39.765 190.54 39.645C190.78 39.525 191.065 39.465 191.395 39.465C191.995 39.465 192.46 39.66 192.79 40.05C193.15 40.41 193.33 40.89 193.33 41.49C193.33 42.12 192.925 42.75 192.115 43.38C191.335 43.98 190.27 44.475 188.92 44.865C187.6 45.255 186.175 45.45 184.645 45.45C182.365 45.45 180.355 44.925 178.615 43.875C176.875 42.795 175.525 41.325 174.565 39.465C173.635 37.575 173.17 35.475 173.17 33.165C173.17 30.855 173.665 28.77 174.655 26.91C175.645 25.02 177.025 23.55 178.795 22.5C180.565 21.42 182.59 20.88 184.87 20.88ZM220.046 33.21C220.046 35.55 219.521 37.65 218.471 39.51C217.421 41.37 215.981 42.825 214.151 43.875C212.351 44.925 210.356 45.45 208.166 45.45C205.976 45.45 203.966 44.925 202.136 43.875C200.336 42.825 198.911 41.37 197.861 39.51C196.811 37.65 196.286 35.55 196.286 33.21C196.286 30.87 196.811 28.755 197.861 26.865C198.911 24.975 200.336 23.505 202.136 22.455C203.966 21.405 205.976 20.88 208.166 20.88C210.356 20.88 212.351 21.405 214.151 22.455C215.981 23.505 217.421 24.975 218.471 26.865C219.521 28.755 220.046 30.87 220.046 33.21ZM215.771 33.21C215.771 31.59 215.426 30.15 214.736 28.89C214.076 27.6 213.161 26.61 211.991 25.92C210.851 25.2 209.576 24.84 208.166 24.84C206.756 24.84 205.466 25.2 204.296 25.92C203.156 26.61 202.241 27.6 201.551 28.89C200.891 30.15 200.561 31.59 200.561 33.21C200.561 34.8 200.891 36.225 201.551 37.485C202.241 38.745 203.156 39.735 204.296 40.455C205.466 41.145 206.756 41.49 208.166 41.49C209.576 41.49 210.851 41.145 211.991 40.455C213.161 39.735 214.076 38.745 214.736 37.485C215.426 36.225 215.771 34.8 215.771 33.21Z" fill="#3E3D3D"/>
</svg>
