<svg width="211" height="56" viewBox="0 0 211 56" fill="none" xmlns="http://www.w3.org/2000/svg">
<path d="M17.562 13.5C20.382 13.5 22.797 14.205 24.807 15.615C26.817 17.025 28.332 18.93 29.352 21.33C30.372 23.7 30.882 26.34 30.882 29.25C30.882 32.19 30.372 34.86 29.352 37.26C28.332 39.63 26.817 41.52 24.807 42.93C22.797 44.31 20.382 45 17.562 45H6.49199C5.89199 45 5.38199 44.79 4.96198 44.37C4.54199 43.95 4.33199 43.44 4.33199 42.84V15.66C4.33199 15.06 4.54199 14.55 4.96198 14.13C5.38199 13.71 5.89199 13.5 6.49199 13.5H17.562ZM17.112 40.86C20.172 40.86 22.467 39.78 23.997 37.62C25.527 35.43 26.292 32.64 26.292 29.25C26.292 25.89 25.512 23.115 23.952 20.925C22.422 18.735 20.142 17.64 17.112 17.64H8.78699V40.86H17.112ZM59.7178 28.44C60.3178 28.44 60.8128 28.65 61.2028 29.07C61.6228 29.49 61.8328 30 61.8328 30.6V40.725C61.8328 41.535 61.4728 42.165 60.7528 42.615C59.3728 43.515 57.8578 44.22 56.2078 44.73C54.5578 45.21 52.8628 45.45 51.1228 45.45C48.1228 45.45 45.3628 44.73 42.8428 43.29C40.3528 41.85 38.3878 39.9 36.9478 37.44C35.5078 34.95 34.7878 32.22 34.7878 29.25C34.7878 26.28 35.5078 23.565 36.9478 21.105C38.3878 18.615 40.3528 16.65 42.8428 15.21C45.3628 13.77 48.1228 13.05 51.1228 13.05C52.6228 13.05 54.0628 13.215 55.4428 13.545C56.8528 13.875 58.1128 14.37 59.2228 15.03C59.5828 15.24 59.8528 15.495 60.0328 15.795C60.2128 16.095 60.3028 16.425 60.3028 16.785C60.3028 17.385 60.0928 17.91 59.6728 18.36C59.2828 18.78 58.8028 18.99 58.2328 18.99C57.7828 18.99 57.3928 18.885 57.0628 18.675C55.1128 17.775 53.1328 17.325 51.1228 17.325C48.9628 17.325 46.9828 17.85 45.1828 18.9C43.4128 19.95 42.0028 21.39 40.9528 23.22C39.9328 25.05 39.4228 27.06 39.4228 29.25C39.4228 31.44 39.9328 33.45 40.9528 35.28C42.0028 37.08 43.4128 38.52 45.1828 39.6C46.9828 40.65 48.9628 41.175 51.1228 41.175C52.1428 41.175 53.2078 41.055 54.3178 40.815C55.4578 40.575 56.4328 40.26 57.2428 39.87V32.715H51.7978C51.1978 32.715 50.6878 32.52 50.2678 32.13C49.8478 31.71 49.6378 31.2 49.6378 30.6C49.6378 29.97 49.8478 29.46 50.2678 29.07C50.6878 28.65 51.1978 28.44 51.7978 28.44H59.7178ZM85.6969 40.86C86.3269 40.86 86.8369 41.07 87.2269 41.49C87.6469 41.91 87.8569 42.405 87.8569 42.975C87.8569 43.575 87.6469 44.07 87.2269 44.46C86.8369 44.82 86.3269 45 85.6969 45H70.0369C69.4369 45 68.9269 44.79 68.5069 44.37C68.0869 43.95 67.8769 43.44 67.8769 42.84V15.66C67.8769 15.06 68.0869 14.55 68.5069 14.13C68.9269 13.71 69.4369 13.5 70.0369 13.5H85.6969C86.3269 13.5 86.8369 13.695 87.2269 14.085C87.6469 14.475 87.8569 14.985 87.8569 15.615C87.8569 16.215 87.6469 16.71 87.2269 17.1C86.8369 17.46 86.3269 17.64 85.6969 17.64H72.3319V26.82H83.6719C84.3019 26.82 84.8119 27.015 85.2019 27.405C85.6219 27.795 85.8319 28.29 85.8319 28.89C85.8319 29.52 85.6219 30.015 85.2019 30.375C84.8119 30.735 84.3019 30.915 83.6719 30.915H72.3319V40.86H85.6969ZM117.526 41.4C117.826 41.61 118.066 41.88 118.246 42.21C118.426 42.51 118.516 42.825 118.516 43.155C118.516 43.785 118.306 44.25 117.886 44.55C117.496 44.85 117.016 45 116.446 45C115.876 45 115.396 44.88 115.006 44.64C114.106 44.13 113.371 43.305 112.801 42.165C112.231 41.025 111.946 39.345 111.946 37.125C111.946 35.625 111.496 34.515 110.596 33.795C109.696 33.075 108.526 32.715 107.086 32.715H97.996V42.84C97.996 43.47 97.816 43.995 97.456 44.415C97.096 44.805 96.631 45 96.061 45C95.371 45 94.771 44.79 94.261 44.37C93.781 43.95 93.541 43.44 93.541 42.84V15.66C93.541 15.06 93.751 14.55 94.171 14.13C94.591 13.71 95.101 13.5 95.701 13.5H108.346C109.966 13.5 111.451 13.905 112.801 14.715C114.151 15.495 115.231 16.59 116.041 18C116.851 19.38 117.256 20.94 117.256 22.68C117.256 24.36 116.806 25.935 115.906 27.405C115.006 28.845 113.851 29.925 112.441 30.645C113.551 31.215 114.421 32.01 115.051 33.03C115.711 34.05 116.071 35.235 116.131 36.585C116.251 38.295 116.386 39.465 116.536 40.095C116.686 40.695 117.016 41.13 117.526 41.4ZM108.256 28.98C109.006 28.92 109.711 28.62 110.371 28.08C111.061 27.54 111.616 26.82 112.036 25.92C112.456 24.99 112.666 23.955 112.666 22.815C112.666 21.375 112.216 20.16 111.316 19.17C110.446 18.15 109.381 17.64 108.121 17.64H97.996V28.98H108.256ZM145.097 40.905C145.727 40.905 146.237 41.1 146.627 41.49C147.047 41.85 147.257 42.33 147.257 42.93C147.257 43.53 147.047 44.025 146.627 44.415C146.207 44.805 145.697 45 145.097 45H124.577C123.947 45 123.407 44.79 122.957 44.37C122.537 43.92 122.327 43.425 122.327 42.885C122.327 42.405 122.492 41.955 122.822 41.535L141.182 17.595H126.107C125.477 17.595 124.952 17.4 124.532 17.01C124.142 16.62 123.947 16.125 123.947 15.525C123.947 14.925 124.142 14.445 124.532 14.085C124.952 13.695 125.477 13.5 126.107 13.5H145.367C145.967 13.5 146.507 13.71 146.987 14.13C147.467 14.52 147.707 15.015 147.707 15.615C147.707 16.035 147.542 16.485 147.212 16.965L128.852 40.905H145.097ZM154.209 44.955C153.489 44.955 152.934 44.76 152.544 44.37C152.184 43.98 152.004 43.41 152.004 42.66V41.805C152.004 41.085 152.184 40.53 152.544 40.14C152.934 39.75 153.489 39.555 154.209 39.555H154.659C155.409 39.555 155.964 39.75 156.324 40.14C156.714 40.53 156.909 41.085 156.909 41.805V42.66C156.909 44.19 156.159 44.955 154.659 44.955H154.209ZM172.87 20.88C175.24 20.88 177.205 21.255 178.765 22.005C180.355 22.755 181.15 23.715 181.15 24.885C181.15 25.395 180.985 25.86 180.655 26.28C180.325 26.67 179.905 26.865 179.395 26.865C179.005 26.865 178.69 26.805 178.45 26.685C178.24 26.565 177.94 26.37 177.55 26.1C177.37 25.92 177.085 25.71 176.695 25.47C176.335 25.29 175.825 25.14 175.165 25.02C174.505 24.9 173.905 24.84 173.365 24.84C171.805 24.84 170.425 25.2 169.225 25.92C168.025 26.64 167.095 27.645 166.435 28.935C165.775 30.195 165.445 31.605 165.445 33.165C165.445 34.755 165.76 36.18 166.39 37.44C167.05 38.7 167.965 39.69 169.135 40.41C170.305 41.13 171.64 41.49 173.14 41.49C174.7 41.49 175.96 41.25 176.92 40.77C177.13 40.65 177.415 40.455 177.775 40.185C178.075 39.945 178.33 39.765 178.54 39.645C178.78 39.525 179.065 39.465 179.395 39.465C179.995 39.465 180.46 39.66 180.79 40.05C181.15 40.41 181.33 40.89 181.33 41.49C181.33 42.12 180.925 42.75 180.115 43.38C179.335 43.98 178.27 44.475 176.92 44.865C175.6 45.255 174.175 45.45 172.645 45.45C170.365 45.45 168.355 44.925 166.615 43.875C164.875 42.795 163.525 41.325 162.565 39.465C161.635 37.575 161.17 35.475 161.17 33.165C161.17 30.855 161.665 28.77 162.655 26.91C163.645 25.02 165.025 23.55 166.795 22.5C168.565 21.42 170.59 20.88 172.87 20.88ZM208.046 33.21C208.046 35.55 207.521 37.65 206.471 39.51C205.421 41.37 203.981 42.825 202.151 43.875C200.351 44.925 198.356 45.45 196.166 45.45C193.976 45.45 191.966 44.925 190.136 43.875C188.336 42.825 186.911 41.37 185.861 39.51C184.811 37.65 184.286 35.55 184.286 33.21C184.286 30.87 184.811 28.755 185.861 26.865C186.911 24.975 188.336 23.505 190.136 22.455C191.966 21.405 193.976 20.88 196.166 20.88C198.356 20.88 200.351 21.405 202.151 22.455C203.981 23.505 205.421 24.975 206.471 26.865C207.521 28.755 208.046 30.87 208.046 33.21ZM203.771 33.21C203.771 31.59 203.426 30.15 202.736 28.89C202.076 27.6 201.161 26.61 199.991 25.92C198.851 25.2 197.576 24.84 196.166 24.84C194.756 24.84 193.466 25.2 192.296 25.92C191.156 26.61 190.241 27.6 189.551 28.89C188.891 30.15 188.561 31.59 188.561 33.21C188.561 34.8 188.891 36.225 189.551 37.485C190.241 38.745 191.156 39.735 192.296 40.455C193.466 41.145 194.756 41.49 196.166 41.49C197.576 41.49 198.851 41.145 199.991 40.455C201.161 39.735 202.076 38.745 202.736 37.485C203.426 36.225 203.771 34.8 203.771 33.21Z" fill="white"/>
</svg>
